<?xml version="1.0" encoding="UTF-8" standalone="no"?>
<svg width="45px" height="45px" viewBox="0 0 45 45" version="1.1" xmlns="http://www.w3.org/2000/svg" xmlns:xlink="http://www.w3.org/1999/xlink" xmlns:sketch="http://www.bohemiancoding.com/sketch/ns">
    <!-- Generator: Sketch 3.2.2 (9983) - http://www.bohemiancoding.com/sketch -->
    <title>Nav assets - Xero logo</title>
    <desc>Created with Sketch.</desc>
    <defs></defs>
    <g id="Page-1" stroke="none" stroke-width="1" fill="none" fill-rule="evenodd" sketch:type="MSPage">
        <g id="Xero-logo---white-8" sketch:type="MSLayerGroup" transform="translate(-1.000000, 0.000000)">
            <path d="M23.4563752,44.9944133 C35.8587267,44.9944133 45.9129032,34.9231378 45.9129032,22.4996939 C45.9129032,10.0761735 35.8587267,0.00489795918 23.4563752,0.00489795918 C11.0539474,0.00489795918 0.999770798,10.0761735 0.999770798,22.4996939 C0.999770798,34.9231378 11.0539474,44.9944133 23.4563752,44.9944133" id="Fill-1" fill="#009DD3" sketch:type="MSShapeGroup"></path>
            <path d="M11.7494992,22.4347194 L15.58191,18.5862245 C15.7089643,18.4565051 15.7798642,18.2847704 15.7798642,18.1027041 C15.7798642,17.7231122 15.4718166,17.4148469 15.0929457,17.4148469 C14.9083616,17.4148469 14.7352377,17.4873214 14.6047453,17.6197194 C14.6044397,17.6203316 10.7757725,21.4532143 10.7757725,21.4532143 L6.92976231,17.6139031 C6.79972835,17.4854847 6.62759762,17.4148469 6.445,17.4148469 C6.06643463,17.4148469 5.7583871,17.7228827 5.7583871,18.1020918 C5.7583871,18.2871429 5.83203735,18.4607143 5.96443973,18.5915051 L9.79639219,22.4292857 L5.96650255,26.2729592 C5.83173175,26.4056633 5.7583871,26.5797704 5.7583871,26.7654337 C5.7583871,27.1448724 6.06643463,27.4529082 6.445,27.4529082 C6.62790323,27.4529082 6.80018676,27.3817347 6.92976231,27.2519388 L10.7698896,23.4104847 L14.5954244,27.2378571 C14.7310357,27.3784439 14.9060696,27.4533673 15.0929457,27.4533673 C15.4714346,27.4533673 15.7794822,27.1448724 15.7794822,26.7654337 C15.7794822,26.5823724 15.7087351,26.4104082 15.5797708,26.2804592 L11.7494992,22.4347194" id="Fill-2" fill="#FFFFFF" sketch:type="MSShapeGroup"></path>
            <path d="M34.5324873,22.4334949 C34.5324873,23.1227296 35.091893,23.6834694 35.7808744,23.6834694 C36.4681749,23.6834694 37.0279626,23.1227296 37.0279626,22.4334949 C37.0279626,21.7441071 36.4681749,21.1835204 35.7808744,21.1835204 C35.091893,21.1835204 34.5324873,21.7441071 34.5324873,22.4334949" id="Fill-3" fill="#FFFFFF" sketch:type="MSShapeGroup"></path>
            <path d="M32.1658234,22.4341837 C32.1658234,20.4381888 33.7868166,18.8142857 35.7795756,18.8142857 C37.7714941,18.8142857 39.3926401,20.4381888 39.3926401,22.4341837 C39.3926401,24.4296429 37.7714941,26.0530102 35.7795756,26.0530102 C33.7868166,26.0530102 32.1658234,24.4296429 32.1658234,22.4341837 M30.7444652,22.4341837 C30.7444652,25.2148469 33.0030985,27.4770918 35.7795756,27.4770918 C38.5559762,27.4770918 40.8159083,25.2148469 40.8159083,22.4341837 C40.8159083,19.6530612 38.5559762,17.3901276 35.7795756,17.3901276 C33.0030985,17.3901276 30.7444652,19.6530612 30.7444652,22.4341837" id="Fill-4" fill="#FFFFFF" sketch:type="MSShapeGroup"></path>
            <path d="M30.3870628,17.4764541 L30.1758149,17.4758418 C29.5416129,17.4758418 28.9299491,17.676199 28.4191341,18.0705612 C28.3516723,17.7619133 28.0763243,17.5298724 27.7484126,17.5298724 C27.3709168,17.5298724 27.0683701,17.8327806 27.0674533,18.2116837 C27.0674533,18.2129847 27.0697453,26.7065816 27.0697453,26.7065816 C27.0707385,27.0847194 27.3787861,27.3922194 27.7564346,27.3922194 C28.1341596,27.3922194 28.4419779,27.0847194 28.4429711,26.7055867 C28.4429711,26.7041327 28.4434295,21.4823724 28.4434295,21.4823724 C28.4434295,19.7413776 28.6022666,19.0384439 30.0909338,18.8520918 C30.2286842,18.834949 30.3782767,18.8376276 30.3788879,18.8376276 C30.7863328,18.8236224 31.0757385,18.5431378 31.0757385,18.1642347 C31.0757385,17.784949 30.7666978,17.4764541 30.3870628,17.4764541" id="Fill-5" fill="#FFFFFF" sketch:type="MSShapeGroup"></path>
            <path d="M17.202292,21.6036735 C17.202292,21.585 17.2036672,21.5652551 17.2046604,21.5459694 C17.6033956,19.9672959 19.0305603,18.7992092 20.7302462,18.7992092 C22.4505603,18.7992092 23.8908659,19.9960714 24.2693548,21.6036735 L17.202292,21.6036735 L17.202292,21.6036735 Z M25.6752037,21.4738776 C25.3793803,20.0705357 24.6124703,18.9178316 23.4444567,18.1776276 C21.7372835,17.0918878 19.4828523,17.1518878 17.8337436,18.3265561 C16.4887097,19.2850255 15.7122496,20.8531378 15.7122496,22.4684694 C15.7122496,22.8734694 15.7609932,23.2822194 15.8624533,23.6846173 C16.370365,25.6861224 18.0880051,27.2011224 20.1359253,27.4523724 C20.7435399,27.5259949 21.3349576,27.4907143 21.9474618,27.3316837 C22.4737861,27.2034949 22.983073,26.9895918 23.452326,26.6884439 C23.9393803,26.3748214 24.3462139,25.96125 24.7405178,25.4661735 C24.7483107,25.4570663 24.7564856,25.4490306 24.7642784,25.4393112 C25.0377929,25.0995918 24.9871392,24.6164541 24.6865789,24.3857908 C24.4330815,24.1911735 24.0073769,24.1122704 23.6726655,24.5418367 C23.6006961,24.6446173 23.520399,24.7500765 23.431927,24.8558418 C23.1656706,25.1505612 22.8353905,25.4360969 22.4394822,25.6576531 C21.9358489,25.9271939 21.3617742,26.0813265 20.7517148,26.0848469 C18.7543718,26.0624235 17.6856791,24.6658163 17.3054329,23.6689286 C17.2390407,23.4830357 17.1878523,23.2897959 17.1520968,23.0911224 C17.1475127,23.053852 17.1439983,23.0179592 17.1426231,22.985051 C17.5557216,22.985051 24.3099236,22.9835969 24.3099236,22.9835969 C25.2925891,22.9631633 25.8213582,22.2684184 25.6752037,21.4738776 L25.6752037,21.4738776 Z" id="Fill-6" fill="#FFFFFF" sketch:type="MSShapeGroup"></path>
        </g>
    </g>
</svg>